# xmcd CD database file
#
# Track frame offsets:
#	150
#	21762
#	49691
#	81561
#	113840
#	138854
#	169155
#	187826
#	205970
#	235238
#
# Disc length: 3316 seconds
#
# Revision: 0
# Processed by: cddbd v1.5.1PL0 Copyright (c) Steve Scherf et al.
# Submitted via: CDex 1.51
#
DISCID=810cf20a
DTITLE=Emma Gilmartin - songe
DYEAR=2005
DGENRE=Jazz
TTITLE0=fairly fast samba
TTITLE1=i'm old fashioned
TTITLE2=another story girl
TTITLE3=devil may care
TTITLE4=songe
TTITLE5=i've never been in love before
TTITLE6=for no one
TTITLE7=when you wish upon a star
TTITLE8=a weaver of dreams
TTITLE9=is it ok if i call you mine
EXTD=YEAR: 2005
EXTT0=
EXTT1=
EXTT2=
EXTT3=
EXTT4=
EXTT5=
EXTT6=
EXTT7=
EXTT8=
EXTT9=
PLAYORDER=
